<?xml version="1.0" encoding="iso-8859-1"?>
<!-- Generator: Adobe Illustrator 19.0.0, SVG Export Plug-In . SVG Version: 6.00 Build 0)  -->
<svg version="1.1" id="Capa_1" xmlns="http://www.w3.org/2000/svg" xmlns:xlink="http://www.w3.org/1999/xlink" x="0px" y="0px"
	 viewBox="0 0 512 512" style="enable-background:new 0 0 512 512;" xml:space="preserve">
<g>
	<g>
		<g>
			<path d="M100.571,128c2.382,0.022,4.67-0.926,6.339-2.625c1.794-1.693,2.809-4.051,2.804-6.518
				c-0.042-7.323,2.905-14.347,8.161-19.447c10.875-10.307,27.935-10.228,38.714,0.179c5.161,5.077,8.041,12.03,7.982,19.268v54.857
				c0.003,5.048,4.095,9.139,9.143,9.143c2.382,0.022,4.67-0.926,6.339-2.625c1.794-1.693,2.809-4.051,2.804-6.518v-54.857
				c0.016-15.142,12.287-27.412,27.429-27.429c15.119,0.071,27.358,12.31,27.429,27.429v155.429
				c0.003,5.048,4.095,9.139,9.143,9.143c2.382,0.022,4.67-0.926,6.339-2.625c1.794-1.693,2.809-4.051,2.804-6.518V84.571
				c-0.308-20.591,5.304-40.837,16.17-58.33c1.923-3.152,4.144-6.112,6.634-8.839c4.789-5.098,8.661-10.985,11.444-17.402l-171.39,0
				c-7.279-0.014-14.264,2.871-19.411,8.018s-8.032,12.132-8.018,19.411v91.429C91.432,123.905,95.523,127.997,100.571,128z"/>
			<path d="M210.286,365.714c-84.859,0-170.474-12.274-208.366-35.999C15.913,434.043,104.908,511.942,210.17,512
				c105.262,0.058,194.343-77.741,208.452-182.054c-34.017,21.233-105.22,32.02-168.702,34.849
				C237.527,365.411,224.554,365.714,210.286,365.714z"/>
			<path d="M274.286,258.411v15.875c-0.071,15.119-12.31,27.358-27.429,27.429c-15.142-0.017-27.412-12.287-27.429-27.429v-18.232
				c-3.035-0.027-6.089-0.054-9.143-0.054C72.223,256,0,285.759,0,301.714s72.223,45.714,210.286,45.714
				c13.955,0,26.643-0.295,38.768-0.902c110.455-4.929,171.518-29.625,171.518-44.813
				C420.572,287.964,369.804,265.804,274.286,258.411z"/>
			<path d="M484.572,0H309.443c-3.216,11.132-9.082,21.318-17.095,29.688c-1.76,1.925-3.327,4.019-4.679,6.25
				c-3.689,5.909-6.603,12.268-8.67,18.92h205.572c15.148,0,27.429-12.28,27.429-27.429S499.72,0,484.572,0z"/>
		</g>
	</g>
</g>
<g>
</g>
<g>
</g>
<g>
</g>
<g>
</g>
<g>
</g>
<g>
</g>
<g>
</g>
<g>
</g>
<g>
</g>
<g>
</g>
<g>
</g>
<g>
</g>
<g>
</g>
<g>
</g>
<g>
</g>
</svg>
